<?xml version="1.0" encoding="UTF-8" ?>
<!DOCTYPE svg PUBLIC "-//W3C//DTD SVG 1.1//EN" "http://www.w3.org/Graphics/SVG/1.1/DTD/svg11.dtd">
<svg width="430pt" height="430pt" viewBox="0 0 430 430" version="1.1" xmlns="http://www.w3.org/2000/svg">
<path fill="#f5f5f5" d=" M 0.00 0.00 L 430.00 0.00 L 430.00 430.00 L 0.00 430.00 L 0.00 0.00 Z" />
<path fill="#0c0b09" d=" M 38.35 9.12 C 66.45 9.11 94.56 9.19 122.66 9.07 C 123.61 16.20 122.92 23.41 123.21 30.57 C 160.81 30.57 198.41 30.56 236.01 30.57 C 238.19 30.58 240.36 30.38 242.53 30.23 C 242.47 37.28 242.45 44.33 242.52 51.37 C 249.19 52.55 256.10 51.72 262.67 53.46 C 262.85 59.78 262.79 66.11 262.74 72.44 C 289.06 72.44 315.38 72.32 341.70 72.54 C 341.82 86.54 341.46 100.55 341.88 114.54 C 364.21 114.48 386.54 114.48 408.87 114.54 C 408.34 122.33 407.68 130.12 407.19 137.92 C 402.29 141.41 397.58 145.18 392.74 148.76 C 390.02 150.58 390.69 154.29 389.88 157.08 C 389.67 159.73 388.45 162.31 388.63 164.96 C 392.18 173.39 396.13 181.66 399.73 190.07 C 400.16 193.90 397.89 197.35 397.32 201.06 C 401.95 208.13 407.32 214.69 412.20 221.60 C 414.97 225.64 418.87 229.21 419.86 234.20 C 421.58 241.50 423.56 248.73 425.35 256.01 C 426.32 259.02 426.60 262.31 428.43 264.99 C 426.66 265.58 425.05 266.76 423.10 266.59 C 396.00 266.55 368.90 266.66 341.81 266.53 C 342.05 273.34 340.97 280.05 340.93 286.84 C 322.77 286.77 304.60 287.04 286.45 286.70 C 285.12 295.76 284.91 304.98 283.83 314.09 C 282.49 323.03 284.13 332.04 283.88 341.02 C 283.87 350.66 284.76 360.27 284.50 369.92 C 283.99 373.23 283.95 376.58 284.01 379.93 C 262.76 395.13 241.32 410.08 220.15 425.38 C 214.78 425.33 209.54 424.23 204.30 423.26 C 202.74 417.49 200.92 411.79 199.18 406.06 C 197.28 401.76 200.00 397.39 200.78 393.16 C 202.21 388.66 202.70 383.88 204.50 379.50 C 208.45 372.73 213.03 366.35 217.13 359.67 C 218.16 358.35 218.03 356.47 217.23 355.09 C 210.18 343.60 203.13 332.10 196.26 320.50 C 195.04 318.53 194.57 316.24 194.08 314.01 C 192.12 305.21 189.44 296.59 186.73 288.00 C 187.26 282.27 186.85 276.47 187.73 270.77 C 189.03 264.16 184.51 258.23 183.81 251.90 C 185.49 247.09 187.53 242.20 187.09 236.99 C 186.75 232.79 188.26 228.61 187.73 224.48 C 181.68 214.65 174.42 205.60 167.99 196.01 C 163.78 190.25 160.03 184.09 155.12 178.89 C 150.72 175.98 146.13 173.38 141.59 170.70 C 136.26 167.36 131.55 163.16 126.56 159.35 C 115.50 150.72 104.54 141.96 93.48 133.32 C 91.89 132.13 91.25 130.19 90.53 128.43 C 85.52 115.20 79.70 102.26 74.93 88.95 C 68.72 85.60 62.23 82.81 55.85 79.81 C 45.63 74.47 34.27 71.96 23.67 67.51 C 19.06 59.99 14.21 52.60 9.68 45.05 L 9.64 43.00 C 10.09 43.42 11.01 44.26 11.46 44.69 C 12.96 44.27 14.42 43.61 16.00 43.67 C 23.48 43.68 30.97 43.71 38.45 43.69 C 38.24 32.17 38.43 20.64 38.35 9.12 Z" />
<path fill="#8a795f" d=" M 41.09 12.20 C 67.38 12.52 93.67 12.12 119.96 12.26 C 120.05 18.51 119.98 24.75 120.00 31.00 C 107.98 30.68 96.01 31.61 84.00 32.00 C 75.77 31.90 67.55 32.04 59.32 32.36 C 59.02 32.74 58.41 33.51 58.11 33.89 C 56.75 44.65 54.44 55.26 52.84 65.99 C 52.27 68.72 50.62 71.03 49.46 73.53 C 47.39 73.51 45.27 73.53 43.32 72.71 C 37.26 70.42 31.01 68.64 25.04 66.14 C 20.84 61.11 18.05 55.06 14.24 49.73 C 14.24 49.08 14.24 47.78 14.24 47.13 C 22.52 47.29 30.81 47.31 39.08 47.16 C 40.90 47.47 41.14 45.40 40.99 44.12 C 41.06 33.48 40.89 22.84 41.09 12.20 Z" />
<path fill="#f5f5f5" d=" M 57.88 25.70 C 55.75 22.96 57.23 19.15 56.94 15.95 C 59.62 15.98 64.47 15.13 63.52 19.55 C 64.46 19.04 65.38 18.49 66.29 17.92 C 67.59 18.16 68.85 18.55 70.06 19.08 C 70.12 19.80 70.24 21.25 70.29 21.98 C 68.56 22.00 66.82 22.02 65.08 22.05 C 65.59 22.56 66.60 23.58 67.10 24.09 C 68.23 23.64 69.37 23.23 70.53 22.85 C 69.70 24.68 67.87 25.47 65.95 24.95 C 64.44 23.41 64.37 21.02 63.06 19.33 C 62.61 21.83 59.92 20.71 58.25 21.10 C 58.16 22.63 58.03 24.17 57.88 25.70 Z" />
<path fill="#f5f5f5" d=" M 78.37 16.24 C 78.90 16.82 78.90 16.82 78.37 16.24 Z" />
<path fill="#8a795f" d=" M 58.16 16.99 C 59.40 17.00 60.65 17.01 61.90 17.03 C 61.88 17.74 61.86 19.16 61.84 19.87 C 60.61 19.93 59.39 19.98 58.16 20.04 C 58.16 19.28 58.16 17.75 58.16 16.99 Z" />
<path fill="#f5f5f5" d=" M 71.28 18.24 C 72.84 18.15 74.39 18.07 75.95 17.99 C 76.57 19.55 77.84 21.25 76.90 22.98 C 76.35 25.36 72.85 24.46 72.20 26.83 C 71.99 26.84 71.57 26.86 71.36 26.87 C 71.37 23.99 71.35 21.12 71.28 18.24 Z" />
<path fill="#f5f5f5" d=" M 78.41 18.28 C 79.87 19.49 79.50 22.93 78.78 24.71 C 77.33 23.41 77.97 20.15 78.41 18.28 Z" />
<path fill="#f5f5f5" d=" M 80.44 18.45 C 82.01 18.26 83.58 18.06 85.15 17.85 C 86.14 20.28 86.09 22.91 85.92 25.48 C 83.45 24.21 84.94 20.87 84.41 18.68 C 81.07 19.09 82.20 22.75 81.94 25.05 L 80.67 25.06 C 80.60 22.86 80.52 20.66 80.44 18.45 Z" />
<path fill="#0c0b09" d=" M 67.07 19.17 C 68.42 18.65 69.49 20.89 67.85 21.21 C 66.49 21.78 65.41 19.46 67.07 19.17 Z" />
<path fill="#8a795f" d=" M 74.06 24.11 C 71.52 22.94 72.49 19.04 75.09 18.55 C 75.39 20.38 76.61 23.36 74.06 24.11 Z" />
<path fill="#8a795f" d=" M 99.14 33.77 C 113.16 32.74 127.22 33.14 141.26 32.88 C 141.40 58.92 141.23 84.97 141.34 111.01 C 141.15 112.48 141.70 114.24 140.79 115.53 C 136.77 119.36 131.92 122.24 128.10 126.29 C 131.07 132.65 134.94 138.58 137.83 144.98 C 138.30 151.62 137.99 158.32 137.84 164.98 C 136.07 164.25 134.28 163.49 132.80 162.26 C 120.38 152.33 107.85 142.54 95.35 132.71 C 92.46 130.55 91.67 126.83 90.19 123.74 C 87.25 116.09 84.35 108.42 81.11 100.89 C 79.10 96.43 77.99 91.55 75.45 87.35 C 67.36 82.74 58.52 79.56 50.31 75.18 C 51.72 72.64 53.56 70.30 54.41 67.50 C 56.43 56.64 57.62 45.61 59.86 34.79 C 72.90 33.23 86.06 34.51 99.14 33.77 Z" />
<path fill="#8a795f" d=" M 143.01 33.01 C 161.78 32.99 180.54 33.01 199.31 33.00 C 200.86 51.33 199.42 69.78 200.21 88.15 C 200.61 94.78 200.18 101.43 200.42 108.06 C 200.65 112.81 201.06 117.58 200.51 122.32 C 200.28 124.33 200.27 126.36 200.65 128.36 C 201.56 137.25 200.78 146.22 201.00 155.15 C 191.39 158.25 181.61 160.76 172.05 164.01 C 171.64 169.16 173.42 174.17 173.06 179.33 C 167.75 178.97 162.47 177.98 157.12 178.15 C 151.80 175.00 146.60 171.63 141.16 168.67 C 138.78 162.08 140.52 154.85 140.01 147.99 C 140.52 144.35 138.15 141.41 136.58 138.39 C 134.51 134.56 132.61 130.64 130.36 126.91 C 134.21 123.08 138.73 120.05 142.98 116.70 C 143.03 88.80 142.97 60.91 143.01 33.01 Z" />
<path fill="#8a795f" d=" M 201.31 33.10 C 214.32 32.85 227.32 33.10 240.33 32.97 C 241.08 39.92 240.37 46.91 240.81 53.88 C 247.39 54.48 254.01 54.76 260.56 55.61 C 261.62 61.75 260.65 68.48 261.05 74.85 C 285.01 75.18 308.98 74.93 332.94 74.98 C 335.08 75.15 337.46 74.52 339.47 75.36 C 339.92 96.58 339.42 117.83 339.74 139.06 C 332.48 139.08 325.22 139.00 317.96 138.96 C 309.69 137.98 301.35 138.91 293.07 138.08 C 278.35 137.89 263.63 138.13 248.91 137.85 C 246.43 137.94 243.84 137.59 241.43 138.30 C 238.20 140.39 235.08 142.67 231.96 144.93 C 232.04 149.31 231.97 153.69 232.01 158.07 C 222.27 157.86 212.64 155.95 202.93 155.19 C 203.73 147.70 200.49 140.30 202.36 132.86 C 202.63 131.80 202.87 130.72 203.13 129.66 C 204.00 128.94 204.82 128.16 205.67 127.41 C 204.47 127.65 203.26 127.73 202.07 127.97 C 201.74 127.48 201.07 126.51 200.74 126.02 C 202.62 126.00 204.51 125.98 206.39 125.96 C 205.88 124.61 205.37 123.26 204.86 121.92 C 204.22 121.98 202.92 122.11 202.27 122.17 C 202.77 113.12 201.74 104.07 202.10 95.01 C 201.84 82.33 202.40 69.63 201.41 56.98 C 201.41 49.02 201.43 41.06 201.31 33.10 Z" />
<path fill="#f5f5f5" d=" M 73.60 61.07 C 75.80 60.91 78.01 61.03 80.09 61.80 C 79.37 64.57 81.10 67.65 79.16 70.06 C 77.35 70.02 75.54 70.00 73.73 70.00 C 73.76 67.02 73.71 64.04 73.60 61.07 Z" />
<path fill="#f5f5f5" d=" M 88.90 61.06 C 91.08 61.14 93.26 61.13 95.44 61.09 C 94.81 61.50 93.54 62.31 92.91 62.72 C 95.09 63.89 97.58 62.61 99.80 63.39 C 100.55 65.47 100.22 67.77 100.37 69.95 C 98.33 69.55 94.95 71.03 94.40 68.14 C 95.01 67.54 96.22 66.33 96.83 65.72 C 96.66 66.64 96.32 68.46 96.15 69.37 C 97.31 68.78 98.42 68.10 99.46 67.32 L 96.72 67.55 C 97.32 66.88 98.52 65.56 99.12 64.90 C 98.66 64.62 97.74 64.06 97.28 63.77 C 96.82 64.08 95.90 64.69 95.44 64.99 C 94.89 64.68 93.81 64.07 93.27 63.76 C 93.32 65.96 93.29 68.16 93.25 70.36 C 90.68 69.48 92.28 66.04 91.82 64.00 C 91.37 64.00 90.47 64.00 90.02 64.00 C 90.01 66.17 90.00 68.35 89.90 70.52 C 87.61 68.23 88.28 64.06 88.90 61.06 Z" />
<path fill="#f5f5f5" d=" M 101.59 69.98 C 101.90 66.78 100.63 63.07 102.61 60.27 C 103.11 63.53 103.05 66.84 102.97 70.12 L 101.59 69.98 Z" />
<path fill="#8a795f" d=" M 75.17 61.79 C 76.34 61.99 77.51 62.23 78.68 62.48 C 78.56 63.39 78.41 64.28 78.22 65.17 C 77.44 65.11 75.87 64.97 75.08 64.91 C 75.10 64.13 75.15 62.57 75.17 61.79 Z" />
<path fill="#8a795f" d=" M 90.18 62.09 C 93.12 60.42 90.50 65.38 90.18 62.09 Z" />
<path fill="#f5f5f5" d=" M 81.55 63.00 L 82.89 63.02 C 82.98 65.07 83.06 67.11 83.18 69.16 C 87.32 69.09 84.00 63.71 87.06 62.37 C 87.06 64.92 87.01 67.47 86.98 70.02 C 85.17 69.89 83.36 69.73 81.56 69.44 C 81.57 67.29 81.56 65.14 81.55 63.00 Z" />
<path fill="#f5f5f5" d=" M 105.31 63.49 C 107.53 61.73 111.07 64.36 110.11 67.01 C 110.39 69.74 107.10 70.12 105.18 70.20 C 106.24 69.32 107.48 68.71 108.71 68.11 C 108.52 66.50 108.94 62.96 106.30 64.16 C 105.50 65.72 104.99 67.43 103.89 68.81 C 104.37 67.21 103.40 64.50 105.31 63.49 Z" />
<path fill="#8a795f" d=" M 75.12 65.89 C 76.36 65.99 77.60 66.09 78.83 66.18 C 78.83 66.83 78.84 68.12 78.84 68.77 C 77.64 68.88 76.44 68.99 75.24 69.10 C 75.21 68.29 75.15 66.69 75.12 65.89 Z" />
<path fill="#f5f5f5" d=" M 239.93 83.90 L 241.19 83.92 C 241.22 86.92 241.10 89.92 240.77 92.90 C 239.33 92.84 237.89 92.75 236.45 92.62 C 236.38 91.90 236.23 90.44 236.15 89.72 C 237.26 90.61 238.40 91.48 239.69 92.10 C 239.83 89.37 239.90 86.64 239.93 83.90 Z" />
<path fill="#f5f5f5" d=" M 255.75 84.16 C 256.01 84.11 256.53 83.99 256.79 83.93 C 256.77 85.34 256.75 86.74 256.72 88.15 C 257.88 87.26 259.05 86.39 260.32 85.69 C 259.86 86.37 258.92 87.72 258.45 88.40 C 259.18 90.03 259.87 91.68 260.49 93.36 C 258.99 92.41 257.90 91.05 257.01 89.55 C 256.90 90.50 256.68 92.39 256.57 93.34 C 256.13 93.02 255.25 92.40 254.81 92.09 C 253.34 92.87 251.69 92.91 250.07 92.88 C 249.01 90.13 248.81 84.94 253.27 85.99 L 254.16 87.69 C 254.81 86.57 255.27 85.36 255.75 84.16 Z" />
<path fill="#f5f5f5" d=" M 242.15 87.94 C 243.07 86.17 245.05 85.75 246.88 85.97 C 248.84 87.71 247.81 90.66 248.18 92.97 C 246.12 92.48 241.98 94.13 242.36 90.72 L 244.18 88.85 C 244.13 89.67 244.03 91.31 243.98 92.14 C 244.97 91.76 245.97 91.38 246.97 90.99 C 246.07 90.28 245.17 89.57 244.30 88.84 L 247.11 88.81 C 246.62 85.54 243.86 87.94 242.15 87.94 Z" />
<path fill="#f5f5f5" d=" M 260.93 87.29 C 262.47 85.10 265.65 85.60 266.62 88.03 C 265.44 87.76 263.07 87.22 261.89 86.95 C 263.42 88.14 265.05 89.24 266.66 90.35 C 267.16 88.85 267.22 86.75 268.98 86.10 C 271.24 85.01 273.73 87.62 273.07 89.90 C 273.34 92.27 270.96 93.16 269.03 93.22 C 268.49 92.65 267.39 91.52 266.84 90.96 C 266.40 91.54 265.50 92.71 265.06 93.29 C 263.26 93.13 261.52 92.68 260.57 91.01 C 262.14 91.38 263.70 91.81 265.27 92.20 C 264.73 89.71 260.98 90.00 260.93 87.29 Z" />
<path fill="#f5f5f5" d=" M 273.83 86.04 C 275.51 86.33 277.76 85.44 279.01 86.99 C 279.26 89.10 280.18 91.93 278.32 93.54 C 277.62 91.20 278.92 87.43 275.82 86.56 C 275.50 88.31 275.21 90.06 274.96 91.81 C 275.40 91.77 276.28 91.69 276.72 91.65 C 275.74 92.18 274.76 92.71 273.79 93.25 C 273.81 90.85 273.82 88.44 273.83 86.04 Z" />
<path fill="#8a795f" d=" M 250.96 87.16 C 252.51 87.51 254.06 87.87 255.61 88.21 C 255.57 89.04 255.49 90.71 255.45 91.54 C 254.08 91.30 252.78 91.49 251.53 92.10 C 250.88 90.52 250.80 88.84 250.96 87.16 Z" />
<path fill="#8a795f" d=" M 269.22 87.07 C 272.19 86.40 272.24 90.42 270.99 92.09 C 268.16 92.45 267.67 88.74 269.22 87.07 Z" />
<path fill="#8a795f" d=" M 341.68 117.00 C 363.32 117.12 384.97 116.76 406.60 117.18 C 405.60 122.95 406.23 128.85 405.38 134.63 C 405.31 136.11 404.06 137.03 403.03 137.89 C 399.07 141.00 394.95 143.93 391.02 147.08 C 388.12 149.06 388.79 153.04 387.93 156.05 C 387.48 159.87 385.20 163.92 387.27 167.61 C 390.87 175.55 394.41 183.51 397.97 191.45 C 396.93 194.88 395.50 198.24 395.10 201.83 C 400.50 209.99 406.63 217.67 412.32 225.64 C 414.27 228.39 416.73 230.93 417.54 234.30 C 420.00 244.23 422.76 254.06 425.21 263.99 C 397.41 263.94 369.60 264.15 341.81 263.88 C 340.72 262.32 341.50 259.91 341.25 258.04 C 341.23 214.34 341.26 170.65 341.24 126.95 C 341.17 123.63 341.24 120.30 341.68 117.00 Z" />
<path fill="#f5f5f5" d=" M 148.43 120.25 C 151.21 120.05 154.17 119.47 156.83 120.67 C 155.97 120.77 154.25 120.99 153.39 121.09 C 152.94 123.82 154.69 127.59 152.15 129.54 C 151.98 126.80 151.98 124.05 151.99 121.31 C 150.79 121.00 149.60 120.64 148.43 120.25 Z" />
<path fill="#f5f5f5" d=" M 197.62 120.00 L 199.00 119.99 C 198.49 123.05 200.34 127.37 197.68 129.52 C 197.52 126.35 197.58 123.17 197.62 120.00 Z" />
<path fill="#f5f5f5" d=" M 156.81 121.83 C 158.29 122.04 159.76 122.28 161.22 122.55 C 162.44 122.29 163.66 122.05 164.89 121.83 C 165.57 123.02 166.66 124.07 166.86 125.49 C 165.13 125.96 163.33 126.04 161.57 126.23 C 162.71 128.72 164.94 127.59 166.92 126.86 C 165.88 128.47 164.24 129.61 162.27 128.85 C 159.90 127.66 160.73 124.68 160.88 122.60 C 156.52 122.51 159.65 127.71 157.05 129.60 C 156.80 127.02 156.81 124.42 156.81 121.83 Z" />
<path fill="#f5f5f5" d=" M 167.56 122.03 C 170.24 122.44 173.07 121.83 175.68 122.48 C 177.11 124.20 176.15 126.91 176.47 129.03 L 175.04 129.02 C 175.00 126.96 174.98 124.92 174.93 122.87 C 171.44 122.64 173.00 126.79 172.57 128.96 C 172.26 128.93 171.64 128.89 171.33 128.87 C 171.36 126.89 171.42 124.91 171.12 122.95 C 167.26 122.80 170.61 128.32 167.69 129.46 C 167.58 126.99 167.58 124.51 167.56 122.03 Z" />
<path fill="#f5f5f5" d=" M 177.64 121.93 C 179.25 122.14 180.99 121.88 182.51 122.55 C 183.30 124.30 184.01 126.83 182.30 128.28 C 180.56 129.02 178.41 129.28 178.01 131.55 C 177.25 128.40 177.57 125.14 177.64 121.93 Z" />
<path fill="#f5f5f5" d=" M 186.97 129.04 C 183.07 129.27 183.02 121.67 186.97 121.97 C 189.38 121.57 189.86 124.27 190.20 126.00 C 188.52 126.00 186.84 126.02 185.16 126.06 C 185.93 128.80 188.51 127.52 190.36 126.90 C 189.45 127.88 188.56 129.35 186.97 129.04 Z" />
<path fill="#f5f5f5" d=" M 190.33 124.02 C 191.22 122.05 193.86 121.43 195.66 122.38 C 196.43 124.49 196.29 126.79 196.57 128.99 C 194.47 128.49 190.66 130.13 190.35 126.94 C 191.00 126.38 192.30 125.24 192.95 124.68 C 192.75 125.60 192.34 127.43 192.13 128.35 C 193.40 127.92 194.45 127.10 195.43 126.20 L 192.71 126.62 C 193.28 125.96 194.44 124.65 195.01 123.99 C 193.90 122.10 191.88 123.89 190.33 124.02 Z" />
<path fill="#f5f5f5" d=" M 200.51 122.32 L 202.27 122.17 C 202.92 122.11 204.22 121.98 204.86 121.92 C 205.37 123.26 205.88 124.61 206.39 125.96 C 204.51 125.98 202.62 126.00 200.74 126.02 C 201.07 126.51 201.74 127.48 202.07 127.97 C 203.26 127.73 204.47 127.65 205.67 127.41 C 204.82 128.16 204.00 128.94 203.13 129.66 C 202.87 130.72 202.63 131.80 202.36 132.86 C 202.41 131.66 202.51 130.46 202.66 129.27 L 200.65 128.36 C 200.27 126.36 200.28 124.33 200.51 122.32 Z" />
<path fill="#f5f5f5" d=" M 206.34 124.13 C 207.26 121.65 209.64 121.91 211.83 122.09 C 212.14 124.32 212.30 126.57 212.63 128.80 C 210.76 128.83 208.89 128.96 207.02 128.87 C 206.52 126.92 207.17 125.53 208.96 124.72 C 208.75 125.64 208.32 127.47 208.11 128.38 C 209.29 127.82 210.40 127.12 211.46 126.34 L 208.84 126.31 C 209.39 125.86 210.49 124.98 211.03 124.54 C 210.75 124.09 210.19 123.20 209.91 122.76 C 208.73 123.25 207.54 123.71 206.34 124.13 Z" />
<path fill="#f5f5f5" d=" M 213.58 121.92 L 214.91 121.88 C 215.30 124.16 213.82 128.03 217.22 128.34 C 217.79 126.13 216.63 123.01 218.82 121.52 C 218.99 123.98 219.03 126.46 219.07 128.93 C 217.26 128.74 214.99 129.58 213.71 127.88 C 213.48 125.90 213.57 123.91 213.58 121.92 Z" />
<path fill="#8a795f" d=" M 163.11 123.20 C 164.45 122.47 165.84 124.72 164.00 125.02 C 162.63 125.72 161.29 123.57 163.11 123.20 Z" />
<path fill="#8a795f" d=" M 181.01 128.07 C 177.86 127.97 178.66 123.34 181.03 122.49 C 181.71 124.27 182.53 126.44 181.01 128.07 Z" />
<path fill="#0c0b09" d=" M 185.27 124.14 C 185.72 122.91 188.26 122.66 188.55 124.11 C 188.16 125.48 185.51 125.66 185.27 124.14 Z" />
<path fill="#0c0b09" d=" M 202.16 123.27 C 203.01 122.73 205.46 123.29 204.51 124.63 C 203.39 126.35 199.52 124.67 202.16 123.27 Z" />
<path fill="#8a795f" d=" M 233.88 145.96 C 236.87 143.96 239.75 141.66 242.97 140.07 C 259.31 139.71 275.65 140.26 291.99 140.41 C 307.81 141.82 323.75 140.24 339.58 141.44 C 339.84 175.50 339.76 209.59 339.63 243.66 C 328.47 244.55 317.18 243.62 305.98 243.85 C 296.64 243.38 287.26 244.19 277.97 243.03 C 266.03 242.96 254.09 242.89 242.15 242.83 C 241.58 235.85 243.29 228.98 243.00 222.01 C 243.01 211.33 244.02 200.67 244.08 189.99 C 244.41 180.10 245.19 170.21 244.91 160.31 C 241.06 159.87 237.23 159.28 233.45 158.47 C 233.54 154.32 232.79 149.99 233.88 145.96 Z" />
<path fill="#8a795f" d=" M 173.91 165.79 C 183.19 162.72 192.67 160.22 201.97 157.16 C 210.33 157.73 218.61 159.63 227.01 160.06 C 232.42 160.37 237.78 161.28 243.12 162.21 C 242.83 170.81 243.30 179.44 242.47 188.02 C 241.71 195.99 242.31 204.01 241.80 211.99 C 240.23 221.84 241.58 231.86 240.60 241.75 C 240.37 241.97 239.92 242.42 239.70 242.64 C 223.13 243.04 206.53 242.41 189.96 242.97 C 189.50 242.65 188.59 242.01 188.14 241.69 C 189.46 236.01 188.55 230.13 189.66 224.43 C 182.36 213.43 174.56 202.77 167.00 191.95 C 164.38 188.14 161.42 184.55 159.31 180.42 C 164.53 180.70 169.73 181.16 174.93 181.75 C 175.05 176.40 173.84 171.14 173.91 165.79 Z" />
<path fill="#f5f5f5" d=" M 261.91 185.65 C 259.49 183.00 261.10 178.97 260.76 175.72 C 264.18 175.85 263.72 180.27 265.05 182.53 C 266.37 180.28 265.80 175.73 269.29 175.75 C 269.30 178.83 269.29 181.91 269.32 185.00 L 267.86 184.98 C 267.83 182.98 267.79 180.97 267.70 178.97 C 266.88 181.02 266.24 183.14 265.60 185.25 C 263.21 184.02 263.34 180.86 262.36 178.66 C 262.23 180.99 262.14 183.33 261.91 185.65 Z" />
<path fill="#f5f5f5" d=" M 270.33 183.44 C 270.13 181.36 269.98 178.01 272.90 177.97 C 276.54 177.42 277.94 183.20 274.80 184.66 C 274.12 184.80 272.78 185.08 272.11 185.22 C 271.66 184.78 270.77 183.89 270.33 183.44 Z" />
<path fill="#f5f5f5" d=" M 277.34 178.16 C 278.91 178.09 280.47 178.01 282.04 177.94 C 282.83 180.21 282.86 182.61 282.79 184.98 C 282.45 184.98 281.76 184.97 281.42 184.96 C 281.38 182.87 281.34 180.78 281.26 178.70 C 277.82 178.83 278.93 182.70 278.63 184.98 C 278.32 184.96 277.70 184.93 277.39 184.91 C 277.37 182.66 277.35 180.41 277.34 178.16 Z" />
<path fill="#f5f5f5" d=" M 283.93 177.86 C 285.40 178.12 286.88 178.38 288.36 178.61 C 289.66 178.37 291.47 177.32 292.55 178.59 C 294.10 179.95 293.26 182.30 293.55 184.09 C 291.98 184.49 290.19 185.60 288.66 184.47 C 286.87 183.07 287.71 180.58 287.61 178.67 C 283.29 178.66 287.09 184.21 283.97 185.52 C 283.83 182.97 283.87 180.41 283.93 177.86 Z" />
<path fill="#f5f5f5" d=" M 293.94 182.20 C 294.33 180.73 294.73 177.75 296.95 178.03 C 298.94 177.54 301.33 180.15 300.01 181.84 C 298.00 182.09 295.96 182.08 293.94 182.20 Z" />
<path fill="#8a795f" d=" M 271.93 179.31 C 275.14 177.59 275.90 182.49 273.92 184.04 C 271.15 184.48 271.42 181.08 271.93 179.31 Z" />
<path fill="#8a795f" d=" M 290.18 179.01 C 293.69 178.99 292.56 185.06 289.17 184.04 C 289.40 182.52 288.09 179.43 290.18 179.01 Z" />
<path fill="#8a795f" d=" M 296.15 179.52 C 296.99 178.46 299.75 179.35 298.68 180.80 C 297.82 181.82 295.00 180.99 296.15 179.52 Z" />
<path fill="#f5f5f5" d=" M 294.37 184.40 C 294.97 183.70 295.57 183.01 296.20 182.33 L 296.57 184.13 C 297.89 183.70 299.23 183.29 300.57 182.91 C 299.40 185.47 296.59 185.17 294.37 184.40 Z" />
<path fill="#f5f5f5" d=" M 184.61 200.92 C 184.69 197.82 184.71 194.71 184.78 191.61 C 187.50 193.17 185.68 197.30 186.18 199.95 C 187.77 199.99 189.36 200.07 190.95 200.20 C 189.08 201.54 186.73 200.88 184.61 200.92 Z" />
<path fill="#f5f5f5" d=" M 202.72 200.33 C 200.15 197.92 200.82 192.02 204.98 191.96 C 207.17 191.39 208.36 193.26 209.09 194.95 C 207.50 194.31 206.02 193.39 204.36 192.90 C 203.91 193.43 203.01 194.48 202.57 195.01 C 202.49 197.28 202.95 199.96 205.72 200.15 C 206.84 199.20 208.01 198.32 209.25 197.53 C 209.04 200.76 205.19 202.04 202.72 200.33 Z" />
<path fill="#f5f5f5" d=" M 190.74 195.76 C 191.96 193.84 194.56 193.53 196.49 194.53 C 196.86 196.59 196.83 198.70 196.95 200.79 C 194.97 200.57 191.03 202.18 191.06 198.97 C 191.71 197.07 194.54 197.22 196.09 196.27 C 194.59 194.53 192.58 195.49 190.74 195.76 Z" />
<path fill="#f5f5f5" d=" M 209.90 193.88 C 211.33 194.04 212.76 194.21 214.20 194.41 C 216.60 193.67 218.84 194.22 220.16 196.44 C 220.43 195.79 220.96 194.49 221.23 193.85 C 222.99 194.08 225.05 194.01 225.74 196.06 C 224.31 195.67 222.88 195.29 221.44 194.93 C 223.96 197.46 227.05 199.59 230.63 200.19 C 230.12 197.74 226.40 198.02 226.26 195.48 C 227.23 192.86 230.86 193.91 231.96 195.95 C 230.43 195.62 228.90 195.30 227.38 194.99 C 228.65 196.47 230.40 197.33 232.12 198.17 C 232.64 196.56 232.49 193.86 234.86 193.95 C 237.24 193.60 238.16 196.06 238.59 197.90 C 236.78 198.00 234.97 198.11 233.16 198.23 C 234.42 200.40 236.49 199.80 238.46 199.06 C 237.61 200.84 235.62 200.88 233.95 201.22 C 233.39 200.35 232.83 199.49 232.27 198.62 C 231.05 201.30 227.65 202.00 225.97 199.34 C 224.95 200.61 223.42 201.00 221.90 201.30 C 221.41 200.71 220.42 199.53 219.93 198.94 C 218.75 200.50 216.36 202.03 214.61 200.36 C 212.74 198.92 213.58 196.41 214.03 194.53 C 209.46 194.40 212.76 199.72 210.07 201.70 C 209.84 199.09 209.84 196.48 209.90 193.88 Z" />
<path fill="#8a795f" d=" M 215.10 196.11 C 215.44 194.30 217.48 195.55 218.53 195.76 C 218.21 197.34 218.55 200.21 216.13 200.08 C 214.90 199.37 214.42 197.34 215.10 196.11 Z" />
<path fill="#0c0b09" d=" M 233.68 196.17 C 233.95 194.77 236.50 194.80 236.90 196.12 C 236.73 197.70 234.10 197.53 233.68 196.17 Z" />
<path fill="#8a795f" d=" M 219.78 197.44 C 221.26 197.09 223.34 197.76 224.07 199.16 C 223.22 200.81 219.35 199.13 219.78 197.44 Z" />
<path fill="#8a795f" d=" M 192.51 199.24 C 193.33 197.77 194.23 197.66 195.19 198.92 C 194.35 200.40 193.46 200.51 192.51 199.24 Z" />
<path fill="#f5f5f5" d=" M 357.84 223.99 L 359.18 224.06 C 359.00 226.84 359.69 229.90 358.50 232.50 C 356.38 234.22 353.12 232.05 354.57 229.48 C 355.44 230.54 356.40 231.52 357.44 232.43 C 357.91 229.64 357.92 226.80 357.84 223.99 Z" />
<path fill="#f5f5f5" d=" M 360.82 232.15 C 360.66 230.01 359.60 226.94 361.83 225.59 C 362.44 227.87 360.81 231.91 364.21 232.31 C 364.39 230.24 364.49 228.16 364.54 226.09 C 364.88 226.05 365.57 225.97 365.91 225.94 C 365.96 228.28 366.00 230.62 366.03 232.97 C 364.29 232.78 362.29 233.34 360.82 232.15 Z" />
<path fill="#f5f5f5" d=" M 367.28 226.08 C 369.04 226.18 370.80 226.27 372.57 226.38 C 372.26 228.60 373.98 232.06 371.48 233.29 C 371.37 231.11 371.26 228.93 371.09 226.75 C 367.75 227.01 368.93 230.68 368.75 232.93 C 368.41 232.92 367.72 232.92 367.37 232.91 C 367.35 230.63 367.32 228.36 367.28 226.08 Z" />
<path fill="#f5f5f5" d=" M 373.30 231.06 C 373.77 229.28 373.62 226.14 376.08 226.00 C 378.22 225.54 379.19 227.76 380.22 229.15 C 378.42 229.97 376.45 230.07 374.52 230.22 C 375.71 232.59 377.90 231.63 379.90 230.97 C 378.44 233.76 374.98 233.45 373.30 231.06 Z" />
<path fill="#f5f5f5" d=" M 380.08 227.96 C 381.23 226.21 383.09 225.65 385.11 226.01 C 386.41 227.94 385.86 230.62 386.28 232.86 C 384.25 232.51 380.44 234.07 380.29 230.93 L 381.33 229.26 L 381.77 230.13 C 381.91 230.62 382.18 231.60 382.32 232.09 C 383.11 231.67 383.90 231.24 384.68 230.81 C 384.34 230.53 383.65 229.98 383.30 229.70 C 383.61 229.20 384.22 228.20 384.52 227.70 C 383.30 226.35 381.48 227.87 380.08 227.96 Z" />
<path fill="#f5f5f5" d=" M 387.29 226.14 C 387.64 226.12 388.35 226.08 388.70 226.06 C 388.75 228.08 388.81 230.10 388.89 232.12 C 392.40 232.14 391.01 227.93 391.50 225.69 C 393.86 227.13 392.41 230.47 392.84 232.76 C 391.09 232.75 389.22 233.22 387.59 232.37 C 387.24 230.31 387.33 228.21 387.29 226.14 Z" />
<path fill="#8a795f" d=" M 376.14 227.19 C 377.52 226.52 378.76 228.83 376.92 229.05 C 375.49 229.71 374.31 227.47 376.14 227.19 Z" />
<path fill="#8a795f" d=" M 188.06 244.28 C 208.37 245.00 228.73 243.77 249.01 245.02 C 253.68 244.99 258.36 244.96 263.03 245.15 C 270.34 245.48 277.69 244.82 284.96 245.86 C 302.65 245.98 320.35 246.03 338.04 246.16 C 339.75 245.80 339.65 247.86 339.73 248.93 C 339.76 260.78 339.67 272.64 339.79 284.50 C 321.39 284.42 302.99 284.53 284.60 284.44 C 283.00 295.50 282.98 306.74 281.12 317.77 C 260.09 317.65 239.06 317.75 218.03 317.72 C 210.90 317.79 203.76 317.46 196.65 318.11 C 194.07 307.63 191.29 297.20 188.23 286.86 C 188.83 279.88 189.27 272.84 189.26 265.82 C 188.54 261.27 186.49 257.07 185.17 252.68 C 186.05 249.85 187.02 247.05 188.06 244.28 Z" />
<path fill="#f5f5f5" d=" M 204.89 263.57 C 207.54 264.89 207.73 268.26 209.03 270.60 C 210.31 268.35 210.41 264.99 212.95 263.70 C 211.79 266.94 210.30 270.05 208.91 273.20 C 207.33 270.09 205.89 266.91 204.89 263.57 Z" />
<path fill="#f5f5f5" d=" M 214.88 273.39 C 213.50 271.30 212.24 267.60 215.00 266.07 C 216.94 265.47 218.36 267.07 219.74 268.13 C 219.91 267.62 220.26 266.60 220.43 266.09 C 223.38 266.17 226.33 266.18 229.28 266.11 C 229.72 268.36 229.82 270.65 229.78 272.93 C 229.41 272.95 228.68 273.00 228.31 273.02 C 228.08 271.22 229.50 265.85 226.23 267.34 C 225.27 269.16 225.97 271.39 225.73 273.38 C 223.25 272.22 224.79 268.89 224.33 266.77 C 220.65 266.54 222.02 270.65 221.65 272.97 C 221.40 272.94 220.89 272.89 220.64 272.87 C 220.42 272.21 219.99 270.90 219.77 270.24 C 218.05 269.43 216.14 270.09 214.35 270.11 C 214.76 270.61 215.58 271.60 215.99 272.09 C 217.19 271.65 218.43 271.28 219.68 270.97 C 218.52 272.55 216.74 273.15 214.88 273.39 Z" />
<path fill="#f5f5f5" d=" M 232.28 266.34 C 236.83 263.80 238.58 272.58 234.08 273.00 C 230.24 273.91 228.98 267.55 232.28 266.34 Z" />
<path fill="#f5f5f5" d=" M 237.61 266.03 C 239.29 266.08 240.98 266.14 242.67 266.21 C 242.95 268.69 243.06 271.19 242.82 273.68 C 240.77 271.94 241.75 268.94 241.26 266.63 C 237.98 267.38 239.24 271.17 238.69 273.57 C 236.59 271.69 237.91 268.49 237.61 266.03 Z" />
<path fill="#0c0b09" d=" M 214.79 268.16 C 214.98 266.68 217.58 266.81 217.92 268.16 C 217.82 269.78 215.17 269.47 214.79 268.16 Z" />
<path fill="#8a795f" d=" M 233.11 267.02 C 235.86 266.72 236.19 271.28 233.88 272.02 C 231.39 272.27 231.05 267.86 233.11 267.02 Z" />
<path fill="#8a795f" d=" M 198.89 320.01 C 226.34 319.98 253.79 320.01 281.24 320.00 C 282.03 334.00 281.75 348.03 282.56 362.02 C 282.47 366.70 283.16 371.36 282.92 376.04 C 283.13 377.94 281.20 378.80 280.01 379.85 C 259.99 393.82 240.20 408.14 220.25 422.20 C 218.78 423.49 216.83 422.69 215.13 422.50 C 212.01 421.77 208.76 422.15 205.64 421.50 C 203.40 415.49 201.51 409.28 199.99 403.05 C 201.34 395.79 203.43 388.62 205.46 381.51 C 209.72 373.04 215.77 365.60 220.29 357.25 C 215.14 348.85 210.18 340.33 204.96 331.97 C 202.64 328.14 199.88 324.46 198.89 320.01 Z" />
<path fill="#f5f5f5" d=" M 220.90 365.94 C 222.98 363.98 226.98 364.92 227.10 368.06 C 225.79 367.33 224.60 366.30 223.13 365.90 C 220.33 366.81 220.99 369.87 221.10 372.15 C 223.45 373.68 225.66 371.93 227.68 370.73 C 226.73 373.63 223.87 374.46 221.12 373.91 C 219.74 371.59 218.36 367.97 220.90 365.94 Z" />
<path fill="#f5f5f5" d=" M 248.63 365.16 C 249.33 365.11 250.74 365.02 251.45 364.98 C 250.80 365.33 249.51 366.05 248.86 366.40 C 249.32 366.67 250.25 367.20 250.71 367.47 C 247.55 368.64 250.90 373.16 247.98 374.44 C 247.89 372.13 247.87 369.82 247.74 367.52 C 245.62 369.25 245.67 372.31 244.60 374.65 C 243.38 373.27 242.93 371.48 242.46 369.76 C 241.99 371.41 242.15 373.62 240.31 374.45 C 239.67 372.15 238.92 369.87 237.80 367.76 C 237.74 369.81 237.81 371.88 237.91 373.94 C 236.07 373.89 234.22 373.87 232.39 373.83 C 232.29 373.14 232.10 371.76 232.01 371.07 C 233.52 370.67 235.03 370.26 236.55 369.89 C 236.55 366.89 233.68 368.56 232.05 369.09 C 232.83 366.52 235.54 366.78 237.55 367.61 C 238.17 367.45 238.80 367.30 239.43 367.15 C 239.81 368.51 240.32 369.82 240.97 371.08 C 241.11 370.09 241.41 368.11 241.55 367.12 C 241.99 367.13 242.88 367.15 243.32 367.15 C 243.73 368.46 244.16 369.76 244.61 371.06 C 244.81 370.21 245.20 368.50 245.40 367.64 C 246.70 367.12 247.91 366.42 248.63 365.16 Z" />
<path fill="#f5f5f5" d=" M 265.35 367.16 C 265.54 366.09 266.01 365.18 266.76 364.42 C 267.10 367.62 267.07 370.84 266.98 374.06 C 265.37 373.74 263.22 374.51 262.08 372.99 C 260.61 371.44 261.67 369.18 261.56 367.32 C 258.18 368.03 259.04 371.48 258.96 374.00 L 257.54 374.00 C 257.54 371.67 257.55 369.34 257.57 367.01 C 260.16 367.21 262.75 367.30 265.35 367.16 Z" />
<path fill="#f5f5f5" d=" M 228.32 367.13 C 229.67 367.09 231.01 367.03 232.35 366.94 C 229.29 368.06 229.70 371.44 229.70 374.07 C 229.37 374.03 228.70 373.96 228.36 373.92 C 228.38 371.65 228.36 369.39 228.32 367.13 Z" />
<path fill="#f5f5f5" d=" M 252.24 367.30 C 252.95 367.14 254.38 366.82 255.09 366.66 C 256.77 368.72 257.76 373.56 254.07 373.92 C 250.32 374.98 248.99 368.53 252.24 367.30 Z" />
<path fill="#8a795f" d=" M 253.17 368.08 C 255.92 367.21 256.19 373.61 253.05 373.04 C 251.52 371.99 251.24 368.65 253.17 368.08 Z" />
<path fill="#8a795f" d=" M 262.90 372.92 C 262.66 371.02 261.89 367.52 264.98 367.97 C 265.67 369.43 265.58 371.07 265.69 372.65 C 264.99 372.72 263.60 372.85 262.90 372.92 Z" />
<path fill="#8a795f" d=" M 234.54 372.04 C 235.06 372.54 235.06 372.54 234.54 372.04 Z" />
</svg>
